<svg xmlns="http://www.w3.org/2000/svg" viewBox="0 0 511.999 511.999" enable-background="new 0 0 511.999 511.999"><linearGradient id="a"><stop offset="0%" stop-color="#0de2d2"/><stop offset="100%" stop-color="#52a8cf"/></linearGradient><path d="M505.562 6.752C492.264-6.55 470.788 4.2 454.704 13.928c-16.56 10.017-38.354 26.164-64.78 47.994-56.336 46.536-120.415 107.515-172.208 159.31l-.05-.03c-29.103 29.378-56.785 58.12-89.147 95.548-14.94-2.252-31.88-.335-47.597 6.256l-.36.157c-32.348 14.573-53.48 46.966-53.838 82.525v.15c0 39.444-6.867 71.157-13.65 82.097L0 509.023l24.748 1.777c6.072.436 12.434.66 18.993.66 48.184 0 106.94-12.1 138.624-41.167l.086-.08c16.334-15.222 24.274-36.28 24.274-64.375 0-3.357-.203-6.69-.603-10.05 37.325-32.277 66.068-59.798 95.99-89.172l-.056-.096c61.123-61.118 115.605-125.408 154.634-179.145 19.632-27.03 34.857-50.875 44.03-68.956C510.12 39.88 518.05 19.24 505.56 6.75zM162.038 448.228c-21.268 19.47-67.946 32.623-114.347 33.24 5.67-19.905 9.027-46.957 9.033-75.55.267-23.817 14.376-45.504 35.98-55.32 12.83-5.333 25.727-6.147 39.374-2.358 1.65 0 15.504 3.47 27.138 15.105 24.878 24.877 21.332 67.587 2.823 84.883zm34.544-83.94c-4.177-8.127-9.613-15.615-16.153-22.156-6.247-6.246-13.203-11.39-20.8-15.417 19.515-22.19 40.68-45.002 62.29-67.12 7.863 5.64 15.297 11.95 22.195 18.85l.147.146c7.29 7.095 13.903 14.916 19.744 23.343-22.658 21.982-45.24 42.852-67.424 62.354zm227.775-243.602c-38.692 51.833-89.104 109.89-138.767 159.86-6.143-8.36-12.942-16.185-20.335-23.386-6.884-6.878-14.235-13.25-21.962-19.07 55.34-55.2 110.038-106.066 154.357-143.527 45.014-38.05 68.9-53.497 80.983-59.763-10.442 25.27-37.91 63.96-54.276 85.886z" fill="url(#a)"/></svg>