<?xml version="1.0" encoding="iso-8859-1"?>
<!-- Generator: Adobe Illustrator 19.0.0, SVG Export Plug-In . SVG Version: 6.00 Build 0)  -->
<svg version="1.1" id="Capa_1" xmlns="http://www.w3.org/2000/svg" xmlns:xlink="http://www.w3.org/1999/xlink" x="0px" y="0px"
	 viewBox="0 0 60 60" style="enable-background:new 0 0 60 60;" xml:space="preserve">
	 <linearGradient id="linear-gradient">
	<stop offset="0%" stop-color="#0de2d2"/>
	<stop offset="100%" stop-color="#52a8cf"/>
 </linearGradient>
<g fill="url(#linear-gradient)">
	<path d="M42,41.867c0-1.93-1.57-3.5-3.5-3.5s-3.5,1.57-3.5,3.5s1.57,3.5,3.5,3.5S42,43.797,42,41.867z M37,41.867
		c0-0.827,0.673-1.5,1.5-1.5s1.5,0.673,1.5,1.5s-0.673,1.5-1.5,1.5S37,42.694,37,41.867z M32.5,44.367c-1.93,0-3.5,1.57-3.5,3.5
		s1.57,3.5,3.5,3.5s3.5-1.57,3.5-3.5S34.43,44.367,32.5,44.367z M32.5,49.367c-0.827,0-1.5-0.673-1.5-1.5s0.673-1.5,1.5-1.5
		s1.5,0.673,1.5,1.5S33.327,49.367,32.5,49.367z M46.888,0H13.112C11.396,0,10,1.396,10,3.112v53.775C10,58.604,11.396,60,13.112,60
		h30.474C47.123,60,50,57.123,50,53.586V3.112C50,1.396,48.604,0,46.888,0z M48,53.586C48,56.02,46.02,58,43.586,58H13.112
		C12.499,58,12,57.501,12,56.888V3.112C12,2.499,12.499,2,13.112,2h33.775C47.501,2,48,2.499,48,3.112V53.586z M16,35h22
		c3.86,0,7-3.098,7-6.904V6c0-0.553-0.448-1-1-1H16c-0.552,0-1,0.447-1,1v28C15,34.553,15.448,35,16,35z M17,7h26v21.096
		C43,30.8,40.757,33,38,33H17V7z M38.793,56.575l-2.5-2.5l1.414-1.414l2.5,2.5L38.793,56.575z M41.793,53.575l-2.5-2.5l1.414-1.414
		l2.5,2.5L41.793,53.575z M44.793,50.575l-2.5-2.5l1.414-1.414l2.5,2.5L44.793,50.575z M20,15c0.256,0,0.512-0.098,0.707-0.293l4-4
		c0.391-0.391,0.391-1.023,0-1.414s-1.023-0.391-1.414,0l-4,4c-0.391,0.391-0.391,1.023,0,1.414C19.488,14.902,19.744,15,20,15z
		 M21.293,16.293l-2,2c-0.391,0.391-0.391,1.023,0,1.414C19.488,19.902,19.744,20,20,20s0.512-0.098,0.707-0.293l2-2
		c0.391-0.391,0.391-1.023,0-1.414S21.684,15.902,21.293,16.293z M23.29,14.29C23.11,14.479,23,14.729,23,15
		c0,0.26,0.11,0.52,0.29,0.71C23.48,15.89,23.74,16,24,16s0.52-0.11,0.71-0.29C24.89,15.52,25,15.26,25,15s-0.11-0.521-0.29-0.71
		C24.34,13.92,23.66,13.92,23.29,14.29z M28.293,9.293l-3,3c-0.391,0.391-0.391,1.023,0,1.414C25.488,13.902,25.744,14,26,14
		s0.512-0.098,0.707-0.293l3-3c0.391-0.391,0.391-1.023,0-1.414S28.684,8.902,28.293,9.293z M26.286,41H24v-2.285
		C24,37.77,23.231,37,22.286,37h-2.571C18.769,37,18,37.77,18,38.715V41h-2.286C14.769,41,14,41.77,14,42.715v2.57
		C14,46.23,14.769,47,15.714,47H18v2.285C18,50.23,18.769,51,19.714,51h2.571C23.231,51,24,50.23,24,49.285V47h2.286
		C27.231,47,28,46.23,28,45.285v-2.57C28,41.77,27.231,41,26.286,41z M26,45h-4v4h-2v-4h-4v-2h4v-4h2v4h4V45z"/>
</g>
<g>
</g>
<g>
</g>
<g>
</g>
<g>
</g>
<g>
</g>
<g>
</g>
<g>
</g>
<g>
</g>
<g>
</g>
<g>
</g>
<g>
</g>
<g>
</g>
<g>
</g>
<g>
</g>
<g>
</g>
</svg>
