<svg fill="#fff" xmlns="http://www.w3.org/2000/svg" viewBox="0 0 512 512" enable-background="new 0 0 512 512"><path d="M256 0C156.748 0 76 80.748 76 180c0 33.534 9.29 66.26 26.87 94.652L245.753 504.91c2.737 4.41 7.56 7.09 12.745 7.09h.118c5.23-.04 10.063-2.804 12.75-7.292L410.61 272.22C427.22 244.428 436 212.54 436 180 436 80.748 355.252 0 256 0zm128.866 256.818L258.272 468.186l-129.905-209.34C113.734 235.214 105.8 207.95 105.8 180c0-82.71 67.49-150.2 150.2-150.2S406.1 97.29 406.1 180c0 27.12-7.41 53.688-21.234 76.818zM256 90c-49.626 0-90 40.374-90 90 0 49.31 39.717 90 90 90 50.903 0 90-41.233 90-90 0-49.626-40.374-90-90-90zm0 150.2c-33.257 0-60.2-27.033-60.2-60.2 0-33.084 27.116-60.2 60.2-60.2s60.1 27.116 60.1 60.2c0 32.683-26.316 60.2-60.1 60.2z"/></svg>