<svg xmlns="http://www.w3.org/2000/svg" viewBox="0 0 60 60" enable-background="new 0 0 60 60"><linearGradient id="a"><stop offset="0%" stop-color="#0de2d2"/><stop offset="100%" stop-color="#52a8cf"/></linearGradient><path d="M42 41.867c0-1.93-1.57-3.5-3.5-3.5s-3.5 1.57-3.5 3.5 1.57 3.5 3.5 3.5 3.5-1.57 3.5-3.5zm-5 0c0-.827.673-1.5 1.5-1.5s1.5.673 1.5 1.5-.673 1.5-1.5 1.5-1.5-.673-1.5-1.5zm-4.5 2.5c-1.93 0-3.5 1.57-3.5 3.5s1.57 3.5 3.5 3.5 3.5-1.57 3.5-3.5-1.57-3.5-3.5-3.5zm0 5c-.827 0-1.5-.673-1.5-1.5s.673-1.5 1.5-1.5 1.5.673 1.5 1.5-.673 1.5-1.5 1.5zM46.888 0H13.112C11.396 0 10 1.396 10 3.112v53.775C10 58.604 11.396 60 13.112 60h30.474C47.123 60 50 57.123 50 53.586V3.112C50 1.396 48.604 0 46.888 0zM48 53.586C48 56.02 46.02 58 43.586 58H13.112C12.5 58 12 57.5 12 56.888V3.112C12 2.5 12.5 2 13.112 2h33.775C47.5 2 48 2.5 48 3.112v50.474zM16 35h22c3.86 0 7-3.098 7-6.904V6c0-.553-.448-1-1-1H16c-.552 0-1 .447-1 1v28c0 .553.448 1 1 1zm1-28h26v21.096C43 30.8 40.757 33 38 33H17V7zm21.793 49.575l-2.5-2.5 1.414-1.414 2.5 2.5-1.414 1.415zm3-3l-2.5-2.5 1.414-1.414 2.5 2.5-1.414 1.415zm3-3l-2.5-2.5 1.414-1.414 2.5 2.5-1.414 1.415zM20 15c.256 0 .512-.098.707-.293l4-4c.39-.39.39-1.023 0-1.414s-1.023-.39-1.414 0l-4 4c-.39.39-.39 1.023 0 1.414.195.195.45.293.707.293zm1.293 1.293l-2 2c-.39.39-.39 1.023 0 1.414.195.195.45.293.707.293s.512-.098.707-.293l2-2c.39-.39.39-1.023 0-1.414s-1.023-.39-1.414 0zm1.997-2.003c-.18.19-.29.44-.29.71 0 .26.11.52.29.71.19.18.45.29.71.29s.52-.11.71-.29c.18-.19.29-.45.29-.71s-.11-.52-.29-.71c-.37-.37-1.05-.37-1.42 0zm5.003-4.997l-3 3c-.39.39-.39 1.023 0 1.414.195.195.45.293.707.293s.512-.098.707-.293l3-3c.39-.39.39-1.023 0-1.414s-1.023-.39-1.414 0zM26.286 41H24v-2.285C24 37.77 23.23 37 22.286 37h-2.57c-.947 0-1.716.77-1.716 1.715V41h-2.286C14.77 41 14 41.77 14 42.715v2.57c0 .945.77 1.715 1.714 1.715H18v2.285c0 .945.77 1.715 1.714 1.715h2.57c.947 0 1.716-.77 1.716-1.715V47h2.286C27.23 47 28 46.23 28 45.285v-2.57C28 41.77 27.23 41 26.286 41zM26 45h-4v4h-2v-4h-4v-2h4v-4h2v4h4v2z" fill="url(#a)"/></svg>