<svg xmlns="http://www.w3.org/2000/svg" viewBox="0 0 512.001 512.001" enable-background="new 0 0 512.001 512.001"><path d="M507.608 4.395c-4.243-4.244-10.61-5.55-16.177-3.32L9.43 193.87C3.915 196.078.222 201.33.01 207.267c-.21 5.936 3.1 11.437 8.445 14.03l190.068 92.18 92.182 190.068c2.514 5.184 7.764 8.455 13.493 8.455.178 0 .357-.003.536-.01 5.935-.21 11.19-3.904 13.394-9.42l192.8-481.997c2.228-5.572.923-11.935-3.32-16.178zM52.094 209.118L434.72 56.068 206.69 284.097 52.095 209.118zm250.79 250.79l-74.98-154.6L455.934 77.28l-153.05 382.627z"/></svg>