<?xml version="1.0" encoding="UTF-8"?>
<!DOCTYPE svg PUBLIC "-//W3C//DTD SVG 1.1//EN" "http://www.w3.org/Graphics/SVG/1.1/DTD/svg11.dtd">
<!-- Creator: CorelDRAW X7 -->
<svg xmlns="http://www.w3.org/2000/svg" xml:space="preserve" width="223.675mm" height="218.752mm" version="1.1" style="shape-rendering:geometricPrecision; text-rendering:geometricPrecision; image-rendering:optimizeQuality; fill-rule:evenodd; clip-rule:evenodd"
viewBox="0 0 3866 3781"
 xmlns:xlink="http://www.w3.org/1999/xlink">
 <defs>
  <style type="text/css">
   <![CDATA[
    .str0 {stroke:gray;stroke-width:3.45711}
    .fil0 {fill:none}
    .fil1 {fill:#13102D}
    .fil2 {fill:#30235F}
    .fil3 {fill:#46A3CC}
    .fil4 {fill:#52C3C0}
   ]]>
  </style>
 </defs>
 <g id="Слой_x0020_1">
  <metadata id="CorelCorpID_0Corel-Layer"/>
  <polygon class="fil0 str0" points="1933,19 3,3021 968,3021 "/>
  <polyline class="fil0 str0" points="968,3021 1933,3771 1933,12 "/>
  <polygon class="fil0 str0" points="1933,19 3863,3021 2898,3021 "/>
  <polyline class="fil0 str0" points="2898,3021 1933,3778 1933,18 "/>
  <polygon class="fil0 str0" points="1933,12 3,3021 968,3021 "/>
  <polygon class="fil1 str0" points="1929,26 3,3021 968,3021 "/>
  <polygon class="fil2 str0" points="1933,20 968,3021 1933,3771 "/>
  <polygon class="fil3 str0" points="1933,19 1933,3771 1933,3771 1933,3778 2898,3021 "/>
  <polygon class="fil4 str0" points="1933,19 2898,3021 3863,3021 "/>
 </g>
</svg>
