<svg xmlns="http://www.w3.org/2000/svg" width="76.761mm" height="30.462mm" shape-rendering="geometricPrecision" text-rendering="geometricPrecision" image-rendering="optimizeQuality" fill-rule="evenodd" clip-rule="evenodd" viewBox="0 0 6368 2527"><path d="M3574 1352c0 48-9 90-26 128-18 37-43 69-74 95s-68 46-111 59c-42 13-88 20-137 20-35 0-66-3-96-9-29-6-55-13-78-21-23-9-42-18-58-27-15-9-27-16-32-23-7-6-11-14-14-24s-4-23-4-39c0-11 0-21 1-29 1-7 3-13 5-18s5-8 8-10 7-3 11-3c7 0 18 5 31 14 14 9 31 18 52 29 21 10 47 20 77 29 30 10 64 14 103 14 30 0 57-4 81-12 25-8 46-19 64-33 17-15 31-32 40-53 10-22 15-46 15-72 0-29-7-54-20-75-13-20-31-38-52-54-22-15-47-30-74-43-28-13-56-26-85-39-29-14-58-28-85-45-27-16-52-35-74-58-21-22-39-48-52-78-14-29-20-65-20-107 0-43 7-81 23-114s37-62 65-84c28-23 61-40 99-52s79-18 123-18c23 0 46 2 69 6s44 9 65 16c20 6 38 14 54 22s26 15 31 20 8 9 10 12 3 6 4 11c1 4 2 10 2 16 1 7 1 15 1 25 0 9 0 18-1 25-1 8-2 14-4 19-1 5-4 9-6 11-3 2-7 4-10 4-6 0-15-4-28-12-12-7-27-15-45-25-18-9-39-17-64-25-24-8-52-11-83-11-28 0-53 3-74 11s-39 18-52 30c-14 13-24 28-31 45-7 18-11 36-11 56 0 28 7 53 20 73 13 21 31 39 53 55s47 30 75 43c28 14 56 27 86 40 29 14 57 28 85 45 28 16 53 35 75 57 22 21 40 47 53 77 14 30 20 65 20 106z"/><path d="M4360 1232c0 21-5 35-16 44-10 9-22 13-35 13h-468c0 40 4 75 12 107s21 59 40 82c18 23 42 40 72 52 29 12 65 18 108 18 34 0 64-2 90-8 27-5 50-12 69-18 19-7 35-13 48-19 12-5 21-8 28-8 3 0 7 1 10 3 2 2 5 4 6 8 2 4 3 9 4 15 1 7 1 15 1 24 0 7 0 13-1 18 0 5-1 10-2 13 0 4-2 8-4 11s-4 6-7 9-11 8-25 14c-15 7-33 13-56 20-23 6-49 11-78 16-30 5-62 8-96 8-58 0-109-8-153-25-44-16-81-40-111-72-30-33-53-73-68-122-16-48-23-105-23-169 0-61 8-116 24-165 15-49 38-90 68-125 30-34 66-60 108-78s90-27 142-27c56 0 103 9 142 27 40 18 72 42 97 72 25 31 44 66 56 107s18 85 18 131v24zm-131-39c1-68-14-122-46-161-32-40-80-59-143-59-32 0-60 6-85 18-24 12-44 28-61 49-16 20-29 43-38 70-9 26-14 54-15 83h388z"/><path d="M4977 953c0 12-1 21-1 29-1 8-2 14-3 19-2 4-4 8-6 10s-6 4-10 4-9-2-15-4c-7-2-13-5-21-7s-16-5-26-7c-9-2-19-3-30-3-14 0-27 3-39 8-13 5-26 14-40 26-14 13-29 29-44 49s-32 45-51 74v469c0 4-1 7-3 10s-5 6-10 8-12 3-20 5c-9 1-19 1-33 1-13 0-23 0-31-1-9-2-16-3-21-5s-8-5-10-8-3-6-3-10V907c0-5 1-8 2-11 2-3 5-5 10-8 5-2 11-4 18-5 8-1 18-1 30-1 11 0 21 0 29 1 7 1 13 3 18 5 4 3 7 5 9 8s3 6 3 11v104c19-29 37-52 55-70 17-18 33-33 48-43 16-10 31-17 46-21s30-6 45-6c7 0 15 0 23 1 9 1 18 2 28 4 9 2 18 5 25 8 8 2 13 5 17 7 3 3 5 5 6 8 1 2 2 5 3 9s1 9 1 16c1 7 1 17 1 29z"/><path d="M5735 1620c0 4-1 7-3 10s-5 6-10 8c-4 2-11 3-18 5-8 1-18 1-29 1s-21 0-29-1c-8-2-14-3-18-5-5-2-8-5-9-8-2-3-3-6-3-10v-95c-41 45-81 78-120 98-40 21-80 31-121 31-47 0-87-8-119-24-33-16-59-37-79-64-20-28-35-59-44-95-8-37-13-81-13-132V907c0-5 1-8 3-11s6-5 11-8c5-2 12-4 20-5 9-1 19-1 32-1s23 0 32 1c8 1 15 3 20 5 5 3 8 5 11 8 2 3 3 6 3 11v415c0 41 3 75 9 100s15 47 27 64c13 18 29 32 48 41 19 10 41 15 66 15 33 0 66-12 98-35 33-23 67-57 104-102V907c0-5 0-8 2-11s6-5 11-8c5-2 12-4 20-5s19-1 32-1 23 0 32 1c8 1 15 3 20 5 4 3 8 5 10 8 3 3 4 6 4 11v713z"/><path d="M6368 614c0 10-1 18-2 24s-2 11-3 15c-2 3-3 6-6 7-2 1-4 2-7 2-4 0-9-1-14-4-6-2-13-5-21-8-8-2-17-5-28-7-11-3-23-4-38-4-19 0-36 3-50 9-13 7-25 17-33 30-8 14-14 31-18 53-4 21-6 47-6 78v78h159c4 0 8 1 11 3s5 5 8 9c2 5 4 10 5 17 2 7 2 16 2 26 0 19-2 33-7 41s-11 13-19 13h-159v624c0 4-1 7-3 10s-6 6-10 8c-6 2-12 3-21 5-8 1-19 1-31 1-13 0-24 0-32-1-8-2-15-3-20-5s-9-5-11-8-3-6-3-10V996h-101c-8 0-15-5-19-13s-6-22-6-41c0-10 0-19 1-26s3-12 5-17c2-4 5-7 8-9s7-3 11-3h101v-74c0-50 5-92 14-128s23-65 42-88 43-40 72-50c29-11 63-17 102-17 18 0 36 2 54 6 17 3 31 7 40 11 10 4 16 7 19 10s6 8 8 13 4 11 5 18c0 7 1 16 1 26z"/><g fill="none"><path d="M1083 690L364 1811h467l466 366 467-366h467L1512 690M1298 19L19 2013h639l639 501 640-501h639zm-215 671l215-666m6 19l208 647M658 2013l173-202m1106 202l-173-202M1298 356L364 1811h467l466 366 467-366h467L1298 356M831 1811l467-1451m0 0v1814m4-1801l462 1438"/></g></svg>