<svg xmlns="http://www.w3.org/2000/svg" viewBox="0 0 60 60" enable-background="new 0 0 60 60"><g fill="#fff"><path d="M45.563 29.174l-22-15c-.307-.208-.703-.23-1.03-.058-.328.173-.533.513-.533.884v30c0 .37.205.71.533.884.146.078.307.116.467.116.197 0 .394-.06.563-.174l22-15c.273-.186.437-.495.437-.826s-.164-.64-.437-.826zM24 43.107V16.893L43.225 30 24 43.107zM30 0C13.458 0 0 13.458 0 30s13.458 30 30 30 30-13.458 30-30S46.542 0 30 0zm0 58C14.56 58 2 45.44 2 30S14.56 2 30 2s28 12.56 28 28-12.56 28-28 28z"/></g></svg>