<svg xmlns="http://www.w3.org/2000/svg"><symbol viewBox="0 0 302 204.27155" id="sprite-icon-adidas-logo"><path d="M277.983 203.645c-14.03 0-22.35-7.18-22.987-17.52h13.415c0 3.447 1.91 8.035 10.21 8.32 5.752 0 8.935-3.446 8.935-6.037-.636-4.018-5.752-4.303-10.845-5.18-5.753-.835-10.21-2-13.415-3.426-4.457-2.305-7.025-7.2-7.025-12.36 0-9.2 7.684-16.38 21.076-16.38 12.778 0 21.077 6.61 21.692 16.665h-12.756c0-2.57-.637-6.894-8.3-6.894-5.115 0-8.298.856-8.935 4.588 0 5.183 10.846 4.897 19.145 6.895 7.662 2.02 12.778 6.894 12.778 13.81 0 12.646-10.21 17.52-22.987 17.52" clip-path="url(#d)"/><path d="M33.537 118.8L77.58 93.222l23.622 40.53H41.836"/><path d="M126.15 202.12v-51.155" stroke="#000" stroke-width="12.887584999999998"/><path d="M13.096 177.3c0 8.035 7.026 14.643 14.666 14.643 8.32 0 14.688-6.608 14.688-14.644 0-7.75-6.367-14.645-14.688-14.645-7.64 0-14.666 6.894-14.666 14.644m14.03 26.433c-14.03 0-26.15-11.79-26.15-26.434s12.12-26.15 26.15-26.15c5.75 0 10.867 1.45 15.324 4.59v-4.02h12.778v50.85H42.45v-3.162c-3.82 2.876-9.573 4.325-15.325 4.325" clip-path="url(#c)"/><path d="M197.59 133.74L136.314 26.863 180.354 1l76.602 132.74"/><path d="M71.825 177.3c0 8.035 6.39 14.643 14.688 14.643 7.64 0 14.688-6.608 14.688-14.644 0-7.75-7.047-14.645-14.687-14.645-8.3 0-14.688 6.894-14.688 14.644m14.05 26.433c-14.687 0-26.17-11.79-26.17-26.434s11.483-26.15 26.17-26.15c5.73 0 10.847 1.45 15.326 4.59V134.2h12.757v68.37H101.2v-3.162c-4.478 2.876-9.594 4.325-15.324 4.325" clip-path="url(#b)"/><path d="M85.247 73.12l44.678-25.27 49.158 85.887h-46.61v12.646h-12.757v-12.646"/><g clip-path="url(#a)"><path d="M292.692 146.782c-3.205 0-6.39-2.876-6.39-6.323s3.185-6.324 6.39-6.324c3.82 0 6.39 2.876 6.39 6.323s-2.57 6.322-6.39 6.322m0-11.768c-3.205 0-5.116 2.57-5.116 5.445s1.91 5.466 5.116 5.466c3.183 0 5.094-2.59 5.094-5.467s-1.91-5.446-5.094-5.446M294.01 143.927l-1.273-2.876h-1.274v2.877h-.966v-6.894h2.876c.637 0 1.91.878 1.91 2.02s-.636 1.712-1.273 1.998l1.273 2.877m-2.546-6.016h-1.274v2.285h1.274c1.273 0 1.273-.286 1.273-1.142 0-.593 0-1.142-1.273-1.142M208.385 177.3c0 8.035 6.39 14.643 14.688 14.643 7.662 0 14.666-6.608 14.666-14.644 0-7.75-7.005-14.645-14.667-14.645-8.3 0-14.688 6.894-14.688 14.644m14.03 26.433c-14.667 0-26.15-11.79-26.15-26.434s11.483-26.15 26.15-26.15c5.75 0 10.867 1.45 15.324 4.59v-4.02h12.14v50.85h-12.14v-3.162c-4.458 2.876-9.574 4.325-15.326 4.325"/><path d="M149.7 177.3c0 8.035 7.026 14.643 14.688 14.643 8.3 0 14.688-6.608 14.688-14.644 0-7.75-6.39-14.645-14.688-14.645-7.662 0-14.688 6.894-14.688 14.644m29.376-43.1h12.756v68.37h-12.756v-3.162c-3.842 2.876-8.958 4.325-14.688 4.325-14.688 0-26.807-11.79-26.807-26.434s12.12-26.15 26.808-26.15c5.73 0 10.846 1.45 14.688 4.59V134.2z"/></g></symbol><symbol viewBox="0 0 217 38" id="sprite-icon-calvin-klein-logo"><path d="M18.747 34.122c-7.452 0-13.812-6.76-13.812-14.13 0-7.346 6.228-14.24 13.76-14.24 4.95 0 8.515 2.396 11.416 6.148h3.647c-1.09-1.97-2.262-3.78-4.045-5.19-3.06-2.474-7.026-3.937-10.965-3.937-9.447 0-17.14 7.797-17.14 17.19 0 9.422 7.8 17.14 17.193 17.14 3.832 0 7.584-1.41 10.592-3.78 1.89-1.516 3.22-3.485 4.497-5.507h-3.647c-2.873 3.75-6.546 6.306-11.496 6.306zM56.537 16.158c-2.288-2.954-5.402-4.816-9.26-4.816-6.92 0-12.616 5.615-12.616 12.535s5.723 12.587 12.616 12.587c4.02 0 6.813-1.676 9.26-4.764v4.205h3.01V11.927h-3.01v4.23zm-9.42 17.538c-5.297 0-9.475-4.604-9.475-9.794 0-5.163 4.15-9.793 9.474-9.793 5.296 0 9.42 4.63 9.42 9.792 0 5.19-4.15 9.794-9.42 9.794zM63.19 3.464h3.22v32.44h-3.22zM78.573 32.1L70.43 11.927h-3.194l9.767 23.978h3.247l9.74-23.978h-3.14zM91.32 11.927h3.22v23.98h-3.22zM91.32 3.464h3.22V8.84h-3.22zM108.406 11.342c-3.034 0-5.19 1.597-7.186 3.726v-3.14h-2.98v23.978h3.167v-14.61c-.026-3.86 3.167-7.186 7.052-7.186 4.87 0 7.318 4.23 7.318 8.596v13.2h2.98v-13.2c0-6.228-3.646-11.364-10.352-11.364zM148.645 3.464l-14.637 18.602V3.464h-3.167v32.44h3.168V26.99l4.15-5.163 10.567 14.078h4.018l-12.56-16.633 12.56-15.808zM153.914 3.464h3.14v32.44h-3.14zM183.056 17.968c-2.183-4.072-6.547-6.626-11.15-6.626-6.867 0-12.668 5.722-12.668 12.588 0 6.92 5.855 12.534 12.72 12.534 3.274 0 6.494-1.304 8.863-3.565 1.438-1.36 2.29-3.062 3.062-4.845h-3.38c-1.703 3.326-4.71 5.642-8.596 5.642-2.368 0-4.684-.958-6.44-2.58-1.81-1.65-2.607-3.674-2.954-6.07h22.115c-.002-2.502-.348-4.897-1.57-7.08zm-20.44 4.31c.958-4.496 4.498-8.17 9.342-8.17 4.07 0 8.436 2.502 9.394 8.17h-18.736zM186.968 11.927h3.167v23.98h-3.167zM186.968 3.464h3.167v5.482h-3.167zM204.053 11.342c-3.087 0-5.243 1.597-7.265 3.726v-3.14h-3.034v23.978h3.193v-14.61c-.026-3.886 3.247-7.186 7.16-7.186 4.843 0 7.398 4.23 7.398 8.596v13.2h2.98v-13.2c0-6.228-3.7-11.364-10.432-11.364z"/></symbol><symbol viewBox="0 0 201.99998 67.488425" id="sprite-icon-Coca-Cola-logo"><path d="M168.12 56.832c-.003 0-.62.55-.62.55-.878.785-1.783 1.627-2.876 1.206-.3-.11-.514-.512-.565-.824-.05-2.25.963-4.336 1.946-6.366l.252-.53c2.827-4.72 6.113-10.283 10.94-14.143.812-.587 1.695-1.08 2.626-.695.214.2.464.548.464.896 0 .11-.098.402-.154.493-1.348 2.177-2.632 4.464-3.88 6.66-2.44 4.336-4.97 8.818-8.134 12.752zm-26.15-11.124c-.184.13-3.444-.97-4.074-3.988-.534-2.6 1.255-4.63 2.987-5.654.743-.585 1.863-.786 2.684-.495.762.514.97 1.43.97 2.416 0 .605-.082 1.227-.152 1.794l-.016.128c-.544 2.03-1.376 4.025-2.4 5.8zm-12.453 12.277c-.333-.494-.443-1.034-.454-1.618-.064-3.588 3.796-10.012 6.52-13.512h.007c1.142 2.5 3.727 4.107 5.288 4.784-1.94 4.317-8.587 13.565-11.36 10.345zm47.054.637c-.644.44-1.55.102-1.212-.904.844-2.562 4.2-7.782 4.2-7.782l9.35-16.582h-6.404c-.304.5-.955 1.648-.955 1.648-.298-.493-1.183-1.59-1.548-1.828-1.565-.99-3.86-.52-5.444.375-6.885 4.025-11.908 11.98-15.87 18.18 0 0-4.17 6.896-6.485 7.41-1.807.146-1.62-2.29-1.542-2.856.7-4.1 2.322-7.996 3.957-11.527 3.325-2.305 7.12-5.324 10.57-8.636 7.484-7.153 13.793-15.26 14.715-17.07 0 0-.998.202-2.177.238-5.758 8.032-17.54 19.706-21.113 21.443 1.583-3.805 11.807-21.973 20.508-30.663l1.37-1.318c2.116-2.068 4.31-4.19 6.02-4.538.18-.018.412 0 .613.42.077 1.61-.523 2.8-1.21 4.154l-.964 1.977s1.364-.257 2.26-.55c1.04-1.957 2.192-4.153 1.767-6.77-.14-.84-.75-1.48-1.547-1.628-2.595-.494-5.424 1.427-7.7 2.983l-.092.054c-11.7 9.167-21.58 22.377-30.218 40.417-.626.474-3.045 1.042-3.456.767.853-1.756 1.927-4.117 2.465-6.678.092-.733.178-1.483.178-2.215 0-1.574-.378-3.056-1.79-4.08-1.653-.824-3.697-.44-5.075.183-6.175 2.56-10.79 8.892-14.12 14.106-1.79 3.312-3.576 6.86-4.07 10.923-.35 3.183.36 5.232 2.17 6.257 1.86.95 4.204-.038 5.124-.513 6.255-3.292 10.626-9.897 14.07-15.935.138-.018 2.02-.072 3.442-.44.018 0 .026 0 .057.02-.08.274-.816 2.47-.816 2.47-2.183 6.403-3.193 10.758-1.13 13.338 2.947 3.64 7.826-.128 11.796-5.105-.852 5.964 2.24 6.898 4.595 6.44 2.708-.73 5.724-3.622 7.124-5.104-.45 1.738-.327 4.85 2.135 5.16 1.687.312 2.95-.606 4.41-1.393 5.243-2.854 11.52-12.365 13.148-15.115h-2.136c-2.316 3.5-5.263 8.09-8.97 10.268zM95.81 23.104h6l3.386-5.5h-6zm95.84-14.61c-4.574 2.597-9.316 4.28-15.057 3.695-1.59 1.792-3.14 3.64-4.568 5.543 8.057 2.05 16.6-2.507 21.363-6.842 5.04-4.372 7.624-9.88 7.624-9.88s-3.777 4.318-9.36 7.483zm-50.45-1.39c-.953 10.94-9.458 17.363-11.562 17.874-1.275.256-3.45-.31-1.51-4.903 2.862-6.185 7.746-11.435 12.986-14.125.128.458.124.75.087 1.153zm-16.57 27.57c-.61-1.316-2.057-2.158-3.598-2.067-5.006.458-9.902 4.575-12.473 10.484-1.35 3.04-2.086 5.545-2.57 9.534 1.557-1.793 4.732-4.738 8.335-6.35 0 .002.49-3.822 2.99-7.226.947-1.41 2.84-3.677 4.966-3.074 1.858.623 1.205 5.764-1.263 10.74-1.827 3.66-4.622 7.32-7.45 9.844-2.5 2.122-6.2 4.683-9.436 2.708-2.037-1.207-3.077-3.733-2.857-6.99.974-9.24 5.18-17.107 11.198-26.072 6.207-8.324 13.048-16.87 22.264-21.426 1.88-.95 3.62-1.17 5.125-.585 0 0-8.652 4.757-12.776 13.558-1.05 2.234-2.508 5.252-1.04 7.923.77 1.39 2.132 1.5 3.23 1.427 5.054-1.17 8.32-5.89 10.988-10.21 1.547-3.274 2.922-6.53 2.922-10.154 0-.44-.022-1.024-.06-1.464 2.415-1.28 7.367.988 7.367.988 3.87 1.28 12.11 7.594 14.89 8.8 1.356-1.572 3.584-3.95 4.84-5.14l-1.817-1.116c-2.908-1.775-5.98-3.458-9.006-5.123-6.87-3.75-12.462-2.432-15.308-1.408-1.12.403-2.142.75-2.142.75-2.112-2.305-5.576-2.086-8.128-1.463-9.178 2.633-17.7 9.055-26.836 20.198C100.267 30.485 96.1 38.024 93.88 45.47c-1.712 5.012-2.232 12.386 1.946 16.76 3.552 3.712 8.263 2.907 11.59 1.572 7.206-3.55 13.683-11.198 16.91-19.998.78-2.616 1.644-6.312.303-9.13zm-79.886-8.488c-.012.037-1.224 2.817-1.224 2.817-.175.147-.452.074-.77 0l-.544-.092c-1.708-.53-2.997-1.663-3.394-3.017-.548-2.635 1.703-4.702 2.695-5.452.95-.658 2.43-1.006 3.29-.33.53.624.73 1.428.73 2.307 0 1.19-.367 2.525-.783 3.77zm-2.603 5.287s-.054.165-.082.22c-.007 0-2.755 4.48-2.755 4.48-1.658 2.216-3.73 4.997-6.317 6.332-.768.257-1.828.422-2.37-.255-1.144-1.372-.554-3.275-.074-4.812l.17-.55c1.375-3.73 3.558-7.025 5.682-10.08.026-.02.086-.037.107-.037.006.02.015.02.018.056 1.333 2.56 3.833 3.75 5.702 4.3.012 0 .024.018.024.055 0 .055-.03.13-.103.293zm34.377-2.945c1.23-1.7 4.807-6.257 5.68-7.026 2.932-2.58 4.105-1.445 4.206-.64-2.738 4.903-5.97 10.52-9.007 15.57.006-.02-.95 1.445-.95 1.445-1.342 2.048-2.693 3.805-4.897 5.03-.315.093-.833.13-1.178-.128-.415-.275-.58-.733-.532-1.21.132-1.572 1.734-6.383 6.676-13.043zM46.052 17.404c-3.793-2.488-11.415 2.27-17.52 10.428-5.583 7.32-7.994 15.826-5.37 19.76 3.902 4.63 11.147-2.104 14.228-5.708l.398-.42c2.095-2.252 3.714-4.96 5.28-7.558 0 0 1.44-2.38 1.51-2.49.89-.163 1.96-.42 3.17-.767-.018.054-4.622 7.793-4.153 11.635.147 1.172.035 5.454 4.215 6.752 5.57.934 10.02-3.384 13.944-7.227 0 0 .67-.64 1.047-1.005l-.22.895c-1.63 5.672.568 6.862 1.943 7.3 4.156 1.21 9.122-4.83 9.138-4.83-.128 1.903-.505 3.477 1.5 4.74 1.893.677 3.808-.356 5.264-1.326 5.244-3.696 9.468-9.48 12.88-14.48h-2.177c-.025 0-5.37 7.747-8.84 9.43-.006 0-.638.325-1.002.07-.45-.386-.273-1.185.005-1.75.017-.038 13.4-23.25 13.4-23.25h-6.318s-.69 1.117-.747 1.19c-.042-.036-.143-.228-.214-.32-3.914-5.416-12.78 2.914-19.455 12.574-2.57 3.714-5.84 7.896-9.234 10.916 0 0-5.024 4.607-7.172 1.297-.785-1.39-.543-3.423-.1-4.76 2.5-7.116 6.808-13.575 11.71-17.473 1.385-1.078 2.89-1.39 3.635-.933.712.422.826 1.464.376 2.177-1.142-.035-2.057.312-2.8 1.08-1.466 1.537-1.975 3.02-1.51 4.41 2.264 3.22 6.776-3.147 6.558-7.026-.078-1.39-.82-2.707-1.927-3.348-1.65-.988-4.167-.732-5.796.055-2.18.824-5.634 3.696-7.65 5.93-2.536 2.8-6.887 5.91-8.248 5.56.446-1.19 4.12-8.71.255-11.526zm31.762 40.71c-7.442-4.795-17.542-5.636-33.83-1.117-17.364 4.08-23.154 6.696-30.757 1.445-2.92-2.58-3.97-6.733-3.187-12.715 1.814-9.753 6.716-19.138 15.422-29.548 4.86-5.417 9.368-10.064 15.32-11.93 4.562-1.17 4.136 2.414 3.584 2.927-.583 0-1.56.092-2.317.585-.615.476-2.3 2.013-2.39 4.08-.13 3.166 3.145 2.507 4.557.77 1.523-1.96 3.774-5.71 2.003-9.204-.742-1.244-2.024-2.104-3.615-2.397C37.155.7 32.078 3.3 27.393 6.17 17.15 13.29 8.953 23.15 4.317 33.946 1.643 40.458-.775 49.788 2.85 57.382c2.803 5.27 8.624 8.067 15.57 7.482 4.87-.512 10.76-2.086 14.72-3.036 3.963-.952 24.24-7.923 30.902 4.21 0 0 2.216-4.302 7.753-4.394 4.552-.42 11.12 1.318 15.9 4.83-1.593-2.396-6.11-5.927-9.878-8.36z"/></symbol><symbol viewBox="0 0 325 200" id="sprite-icon-converse-logo"><path fill-rule="evenodd" clip-rule="evenodd" d="M314.878 162.686h.94c.48 0 1.002.093 1.002.7 0 .722-.574.754-1.2.754h-.742v-1.454zm-.708 3.99h.708v-1.967h.752l1.243 1.966h.762l-1.306-2.018c.677-.07 1.2-.417 1.2-1.24 0-.88-.51-1.306-1.597-1.306h-1.764v4.564zm-1.703-2.3c0-1.866 1.398-3.31 3.224-3.31 1.81 0 3.21 1.443 3.21 3.31 0 1.91-1.402 3.355-3.21 3.355-1.825 0-3.223-1.443-3.223-3.354zm-.71 0c0 2.244 1.795 3.93 3.934 3.93 2.133 0 3.92-1.686 3.92-3.93 0-2.204-1.788-3.884-3.92-3.884-2.138 0-3.934 1.68-3.934 3.884zm-43.742-5.806v6.527h-16.35v7.374h11.231c3.818 0 6.91 3.093 6.91 6.912v6.064c0 3.818-3.092 6.91-6.91 6.91h-18.994v-6.526h18.765v-6.833H251.437c-3.818 0-6.912-3.092-6.912-6.91V165.478c0-3.812 3.094-6.91 6.91-6.91h16.58zm37.47 33.787h-16.578c-3.817 0-6.91-3.092-6.91-6.91V165.48c0-3.812 3.093-6.91 6.91-6.91h16.58v6.527h-16.35V172.624h16.35v6.526h-16.35v6.68h16.35v6.527zm-111.954 0h-16.578c-3.815 0-6.91-3.092-6.91-6.91V165.48c0-3.812 3.095-6.91 6.91-6.91h16.58v6.527h-16.348V172.624h16.347v6.526h-16.346v6.68h16.347v6.527zM98.16 158.57H113.903c3.817 0 6.91 3.098 6.91 6.91v26.877h-7.14v-27.26h-11.9v27.26H94.63V158.57h3.53zm115.335 14.054h12.663V165.096h-12.663v7.527zm19.803-6.217v5.832c0 3.536-2.652 6.448-6.073 6.86l6.695 13.257h-8.038l-5.84-13.206h-6.547v13.207h-7.14V158.57h20.035c3.816 0 6.91 3.098 6.91 6.91v.927zm-96.128-7.837l7.985 28.107 8.447-28.107h8.14l-10.904 33.787h-11.21l-10.444-33.787h7.986zm-117.56 6.91c0-3.812 3.094-6.91 6.91-6.91h17.737v6.527H26.75v20.733H44.26v6.526H26.52c-3.815 0-6.91-3.092-6.91-6.91V165.48zm35.55 0c0-3.812 3.096-6.91 6.912-6.91h14.742c3.818 0 6.912 3.098 6.912 6.91v19.966c0 3.82-3.094 6.91-6.912 6.91H62.072c-3.816 0-6.91-3.09-6.91-6.91V165.48zm7.143-.382h14.283v20.733H62.303V165.1zm102.546-132.5l9.182 28.265h29.72l-24.044 17.465 9.184 28.27-24.043-17.47-24.044 17.47 9.183-28.27-24.043-17.465h29.718l9.184-28.265zm55.4 39.93c0 30.597-24.804 55.398-55.402 55.398s-55.403-24.802-55.403-55.4 24.806-55.403 55.403-55.403S220.25 41.93 220.25 72.527zm-55.4-64.885c-35.835 0-64.884 29.047-64.884 64.885 0 35.833 29.05 64.88 64.883 64.88s64.88-29.047 64.88-64.88c0-35.84-29.047-64.885-64.88-64.885z"/></symbol><symbol viewBox="0 0 155.139 155.139" id="sprite-icon-facebook"><path d="M89.584 155.14V84.377h23.742l3.562-27.585H89.584v-17.61c0-7.983 2.208-13.424 13.67-13.424l14.595-.007V1.08C115.324.752 106.66 0 96.576 0 75.52 0 61.104 12.853 61.104 36.452v20.34H37.29V84.38h23.814v70.76h28.48z"/></symbol><symbol viewBox="0 0 475.092 475.092" id="sprite-icon-google-plus"><path d="M273.372 302.498c-5.04-6.762-10.608-13.045-16.7-18.842-6.09-5.804-12.183-11.088-18.27-15.845-6.093-4.756-11.66-9.328-16.703-13.708-5.043-4.374-9.136-8.945-12.276-13.702-3.14-4.757-4.71-9.61-4.71-14.558 0-6.855 2.19-13.278 6.566-19.274 4.377-5.996 9.707-11.8 15.986-17.417 6.28-5.616 12.56-11.752 18.844-18.414 6.276-6.665 11.604-15.465 15.985-26.412 4.373-10.944 6.563-23.458 6.563-37.542 0-16.75-3.713-32.835-11.136-48.25-7.423-15.418-17.89-27.412-31.405-35.976h38.54L303.2 0H178.44c-17.698 0-35.497 1.906-53.383 5.72-26.453 5.9-48.723 19.368-66.806 40.397-18.08 21.033-27.12 44.873-27.12 71.52 0 28.17 10.137 51.583 30.405 70.233 20.27 18.65 44.585 27.978 72.945 27.978 5.71 0 12.37-.478 19.985-1.427-.38 1.522-1.043 3.568-1.997 6.137s-1.715 4.62-2.286 6.14c-.57 1.52-1.047 3.375-1.425 5.566-.382 2.19-.57 4.428-.57 6.71 0 12.563 6.085 26.744 18.27 42.54-14.465.388-28.737 1.67-42.825 3.86-14.084 2.19-28.833 5.617-44.252 10.28-15.417 4.662-29.217 11.42-41.396 20.27-12.182 8.855-21.317 19.367-27.408 31.55C3.533 361.56.01 374.405.01 386.017c0 12.75 2.857 24.314 8.565 34.69 5.708 10.37 13.035 18.842 21.982 25.406 8.945 6.57 19.273 12.083 30.978 16.562 11.704 4.47 23.315 7.66 34.83 9.562 11.515 1.903 22.887 2.854 34.118 2.854 51.007 0 90.98-12.463 119.91-37.396 26.647-23.223 39.97-50.062 39.97-80.517 0-10.855-1.57-20.984-4.712-30.41-3.14-9.43-7.23-17.513-12.278-24.27zm-110.06-103.776c-9.708 0-18.938-2.475-27.695-7.426-8.757-4.95-16.18-11.374-22.27-19.273-6.088-7.898-11.418-16.796-15.987-26.695-4.567-9.896-7.944-19.792-10.135-29.692-2.19-9.895-3.284-19.318-3.284-28.265 0-18.27 4.855-33.973 14.563-47.107 9.705-13.134 23.41-19.7 41.112-19.7 12.563 0 23.935 3.898 34.118 11.703 10.183 7.804 18.177 17.7 23.984 29.692 5.802 11.99 10.277 24.407 13.417 37.257 3.14 12.847 4.71 24.983 4.71 36.403 0 19.036-4.138 34.317-12.418 45.833-8.282 11.514-21.65 17.272-40.115 17.272zm78.94 214.4c-5.23 8.95-12.32 15.94-21.268 20.982-8.946 5.048-18.51 8.758-28.693 11.14-10.182 2.385-20.888 3.572-32.12 3.572-12.18 0-24.27-1.43-36.257-4.284-11.99-2.85-23.46-7.187-34.403-12.99-10.944-5.8-19.795-13.8-26.55-23.983-6.758-10.185-10.136-21.745-10.136-34.69 0-11.42 2.568-21.602 7.708-30.55 5.142-8.946 11.71-16.085 19.702-21.41 7.994-5.33 17.32-9.712 27.98-13.13 10.66-3.433 20.936-5.808 30.832-7.14 9.895-1.334 19.985-1.994 30.262-1.994 6.283 0 11.043.19 14.277.567 1.143.767 4.043 2.76 8.708 5.996s7.804 5.427 9.423 6.57c1.615 1.136 4.567 3.325 8.85 6.562 4.28 3.237 7.327 5.66 9.135 7.28 1.804 1.617 4.422 4.044 7.85 7.278 3.424 3.237 5.948 6.043 7.566 8.422 1.615 2.378 3.616 5.28 5.996 8.702 2.38 3.433 4.043 6.715 4.998 9.855.948 3.14 1.854 6.566 2.707 10.276.855 3.72 1.283 7.57 1.283 11.57.005 11.987-2.613 22.456-7.85 31.397zM401.998 73.09V0h-36.55v73.09h-73.09v36.546h73.09v73.09H402v-73.09h73.083V73.09z"/></symbol><symbol viewBox="0 0 169.063 169.063" id="sprite-icon-instagram"><path d="M122.406 0H46.654C20.93 0 0 20.93 0 46.655v75.752c0 25.726 20.93 46.655 46.654 46.655h75.752c25.727 0 46.656-20.93 46.656-46.655V46.655C169.062 20.93 148.132 0 122.406 0zm31.657 122.407c0 17.455-14.2 31.655-31.656 31.655H46.654C29.2 154.062 15 139.862 15 122.407V46.655C15 29.2 29.2 15 46.654 15h75.752c17.455 0 31.656 14.2 31.656 31.655v75.752zM84.53 40.97c-24.02 0-43.562 19.542-43.562 43.563 0 24.02 19.542 43.56 43.563 43.56s43.564-19.54 43.564-43.56c0-24.02-19.542-43.563-43.563-43.563zm0 72.123c-15.748 0-28.562-12.812-28.562-28.56 0-15.75 12.813-28.564 28.563-28.564s28.564 12.812 28.564 28.562c0 15.75-12.814 28.56-28.563 28.56zM129.92 28.25c-2.89 0-5.728 1.17-7.77 3.22-2.05 2.04-3.23 4.88-3.23 7.78 0 2.892 1.18 5.73 3.23 7.78 2.04 2.04 4.88 3.22 7.77 3.22 2.9 0 5.73-1.18 7.78-3.22 2.05-2.05 3.22-4.89 3.22-7.78 0-2.9-1.17-5.74-3.22-7.78-2.04-2.05-4.88-3.22-7.78-3.22z"/></symbol><symbol viewBox="0 0 499.99996 105" id="sprite-icon-lenovo-logo"><g><path d="M209.947 23.227c-8.938 0-19.102 4.143-25.313 12.438l.004-.017-.004.004.004-11.122h-21.316v77.627h21.312v-44.17c0-7.95 6.164-16.4 17.577-16.4 8.82 0 17.948 6.133 17.948 16.4v44.17h21.317v-48.12c0-17.855-12.774-30.81-31.528-30.81"/><path d="M392.97 24.533L373.7 77.41l-19.27-52.877h-24.35l31.94 77.603h23.358l31.94-77.603H392.97z"/><path d="M99.688 47.918c3.63-4.874 9.412-7.736 16.396-7.736 7.68 0 13.51 4.387 16.522 10.862l-37.242 15.45c-1.017-7.928 1.013-14.13 4.324-18.576M140.64 78.29c-8.97 6.64-14.097 8.223-22.278 8.223-7.362 0-13.127-2.286-17.19-6.294l54.495-22.608c-1.19-8.425-4.387-15.95-9.307-21.674-7.16-8.316-17.758-12.715-30.662-12.715-23.44 0-41.113 17.29-41.113 40.13 0 23.43 17.716 40.124 43.462 40.124 14.425 0 29.174-6.837 36.074-14.825L140.64 78.29z"/><path d="M72.554 82.583h-48.45V1.313H2.5v100.843h70.056V82.583z"/><path d="M455.592 41.49c-11.904 0-20.548 9.02-20.548 21.854 0 12.253 9.156 21.854 20.834 21.854 11.908 0 20.548-9.27 20.548-21.854 0-12.253-9.152-21.855-20.834-21.855m0 61.974c-23.313 0-41.58-17.367-41.58-40.12 0-22.498 18.393-40.12 41.866-40.12 23.312 0 41.574 17.366 41.574 40.12 0 22.493-18.388 40.12-41.86 40.12"/><path d="M291.48 41.49c-11.904 0-20.544 9.02-20.544 21.854 0 12.253 9.152 21.854 20.834 21.854 11.904 0 20.544-9.27 20.544-21.854 0-12.253-9.152-21.855-20.834-21.855m0 61.974c-23.313 0-41.575-17.367-41.575-40.12 0-22.498 18.388-40.12 41.865-40.12 23.308 0 41.575 17.366 41.575 40.12 0 22.493-18.393 40.12-41.865 40.12"/></g></symbol><symbol viewBox="0 0 430.117 430.117" id="sprite-icon-linkedin"><path d="M430.117 261.543V420.56H337.93V272.193c0-37.27-13.335-62.707-46.704-62.707-25.473 0-40.632 17.142-47.3 33.724-2.433 5.928-3.06 14.18-3.06 22.477V420.56H148.65s1.242-251.285 0-277.32h92.21v39.31c-.187.293-.43.61-.606.895h.606v-.896c12.25-18.87 34.13-45.825 83.102-45.825 60.673 0 106.157 39.636 106.157 124.818zM52.183 9.558C20.635 9.558 0 30.25 0 57.463c0 26.62 20.038 47.94 50.96 47.94h.615c32.16 0 52.16-21.317 52.16-47.94-.607-27.212-20-47.905-51.552-47.905zM5.477 420.56H97.66V143.24H5.478v277.32z"/></symbol><symbol viewBox="0 0 1413 200" id="sprite-icon-McLaren-Logo"><path d="M1328.97 3.23c11.88-2.06 23.97-2.41 36.01-2.58 12.02-.06 24.52 1.23 35.23 7.14 9.84 4.04 15.24 16.03 11.64 26.07-4.68 15.5-15.81 27.85-27.12 38.96-28.61 29.45-64.07 50.7-98.15 73.07 5.71-8.33 10.36-17.38 13.89-26.84 2.73-7.44 5.32-15.08 5.64-23.07.43-8.22-1.33-16.96-6.61-23.48-5.35-6-12.88-9.59-20.53-11.67-11.05-3.08-22.6-3.42-34-3.39-25.91.2-51.58 4.44-76.9 9.63-8.89 1.61-17.64 4.32-26.71 4.68 7.71-2.55 14.51-7.04 21.75-10.59 34.1-17.29 69.4-32.34 105.94-43.68 19.58-6.26 39.67-10.77 59.92-14.25z"/><g fill="#010101"><path d="M146.14 83.18c1.27-1.38 3.2-1.15 4.89-1.19 14.61.1 29.22.14 43.83-.01.27 20.69.72 41.39.98 62.08 26.3-20 50.86-42.18 77.09-62.27 16 .63 32.01.05 48.02.35-.1 39.23-.06 78.46 0 117.69-20.75.16-41.5-.16-62.24.17h-.41c-.23-18.37-.07-36.75-.06-55.12-21.48 17.78-41.54 37.19-62.88 55.12h-3.05c-19.56-.4-39.12.07-58.68-.21.34-18.44-.11-36.88.25-55.32-21.32 18.12-41.7 37.31-62.93 55.53H.84c1.99-2.11 4.34-3.81 6.71-5.45 11.99-8.92 23.14-18.89 34.97-28.01 34.58-27.73 69.19-55.44 103.62-83.36zM509.12 81.93c20.64.25 41.28.12 61.92.08.29 30.21.12 60.42.12 90.63 13.94.01 27.89.03 41.83 0-.23 9.07-.27 18.14.01 27.2-34.69-.03-69.38.21-104.06-.12.11-39.26-.26-78.53.18-117.79zM342.19 121.27c5.51-10.52 16.74-18.35 28.83-18.27 41.24.03 82.48 0 123.73.02-.21 9.16-.03 18.32-.03 27.48-27.22.31-54.45-.24-81.68.25-7.03.3-12.63 6.16-14.59 12.61-2.74 8.6-1.17 19.2 5.8 25.39 2.45 2.05 5.51 3.62 8.77 3.62 27.25.68 54.51 0 81.75.34-.19 8.99-.18 17.98.05 26.97-41.93.43-83.87.07-125.81.18-9.17-.27-17.7-5.41-23.25-12.56-13.29-19.04-14.04-45.54-3.57-66.03zM634.02 102.91c40.66.25 81.33.04 122 .1 8.41-.02 16.79 3.33 22.75 9.29 10.03 9.72 14.58 23.93 14.74 37.66.08 12.88-2.64 26.4-10.84 36.68-5.48 7.24-13.78 12.07-22.76 13.36H643.22c-8.68-1.4-13.6-10.14-15.2-18.05-2.03-9.72-1.17-20.33 3.82-29.06 2.8-4.98 8.4-8.25 14.13-8.15 28.4.18 56.81-.08 85.22.15.02-4.8.03-9.59.01-14.39-32.37.22-64.75-.02-97.12.12-.34-9.24-.28-18.48-.06-27.71m48.09 55.76c0 4.65-.02 9.31.01 13.97 16.32.05 32.65-.18 48.97.19.1-4.76.17-9.53.22-14.29-16.4-.02-32.8-.14-49.2.13zM807.95 118.05c-.59-7.89 6.97-15.76 14.95-14.88 27.37-.39 54.75-.05 82.13-.12-.18 9.16-.13 18.32-.06 27.49-11.65.09-23.29-.03-34.94.07.11 23.08 0 46.16.08 69.24-20.72.06-41.44-.03-62.16.04.04-27.28.06-54.56 0-81.84zM931.53 108.6c5.94-4.22 13.35-5.59 20.51-5.64 37.01.07 74.03.09 111.04.02 7.33 1.68 12.11 8.85 14.17 15.7 2.66 9.6 2.5 20.4-2.05 29.41-2.84 5.7-8.44 10.66-15.13 10.44-28.48 0-56.96-.04-85.44-.02.01 4.7.02 9.39-.01 14.08 32.49.21 64.97-.12 97.46.13-.1 9.09.03 18.19-.18 27.28H946.34c-9.81-1.14-18.85-6.79-24.3-14.99-8.98-13.54-11.6-30.75-8.38-46.55 2.26-11.58 7.95-23.03 17.87-29.86m43.09 22.08c-.03 4.61.14 9.22-.05 13.83 16.19.49 32.42-.02 48.62.26.02-4.73.03-9.46.06-14.2-16.21.13-32.42-.12-48.63.11zM1092.92 102.94c41.69.14 83.39.1 125.09.01 6.28-.27 12.66.86 18.31 3.7 8.6 4.14 15.99 12.46 16.35 22.35.59 23.62-.14 47.24.31 70.86-18.59-.11-37.18.2-55.77-.15.25-16.24.14-32.48.1-48.72.15-6.24-3.74-12.19-9.31-14.89-9.99-4.95-21.39-5.25-32.29-5.78.01 23.07-.29 46.14.12 69.21-3.85.09-7.69.11-11.51.47h-35.7c-5.25-.36-10.51-.17-15.76-.28.15-32.26.05-64.52.06-96.78z"/></g></symbol><symbol viewBox="135.5 361.375 200 72" id="sprite-icon-nike-logo"><path d="M159.23 431.966c-5.84-.232-10.618-1.83-14.354-4.798-.713-.567-2.412-2.267-2.982-2.984-1.515-1.905-2.545-3.76-3.232-5.816-2.114-6.332-1.026-14.64 3.112-23.76 3.543-7.807 9.01-15.55 18.548-26.274 1.405-1.578 5.59-6.193 5.616-6.193.01 0-.218.396-.505.877-2.48 4.154-4.602 9.047-5.758 13.283-1.857 6.797-1.633 12.63.656 17.153 1.58 3.116 4.287 5.815 7.33 7.307 5.33 2.61 13.132 2.827 22.66.632.656-.152 33.162-8.78 72.236-19.176 39.074-10.396 71.05-18.895 71.054-18.888.01.01-90.78 38.86-137.91 59.014-7.465 3.19-9.46 3.997-12.97 5.23-8.97 3.15-17.005 4.652-23.5 4.394z"/></symbol><symbol viewBox="0 0 502.921 104.794" id="sprite-icon-PlayStation-logo"><path d="M502.3 24.062H180.797v65.083H502.92V24.062h-.62zm-13.197 57.156h5.627v.83h-2.322v6.42h-.98v-6.42h-2.324v-.83z" fill="none"/><path d="M491.427 88.467h.98V82.05h2.323v-.832h-5.627v.83h2.324z"/><path d="M502.3 24.062H180.797v65.083H502.92V24.062h-.62zm-6.668 57.156h1.352l2.102 6.19 2.033-6.19h1.18v7.25h-.81v-5.89l-1.953 5.89h-.97l-1.954-5.89v5.89h-.98v-7.25z" fill="none"/><path d="M496.613 82.577l1.953 5.89h.97l1.954-5.89v5.89h.81v-7.25h-1.18l-2.035 6.192-2.1-6.192h-1.353v7.25h.98zM335.36 71.1V41.127c0-6.115 2.855-10.494 8.942-10.494h37.547c.23 0 .45-.228.45-.454v-5.964c0-.052-.015-.103-.035-.152h-45.91c-9.95 1.265-14.81 8.2-14.81 17.064V71.1c0 6.115-2.935 10.495-8.94 10.495H272.95c-.225 0-.45.15-.45.453v5.965c0 .247.15.436.33.5h45.018c11.734-.31 17.51-7.8 17.51-17.412zM181.104 88.513h13.183c.178-.063.33-.252.33-.5V68.912c0-6.114 3.454-10.343 8.486-10.343h54.3c12.243 0 18.177-7.55 18.177-17.44 0-8.865-4.857-15.8-14.813-17.065H180.86c-.023.05-.062.09-.062.152v5.964c0 .302.15.454.45.454h71.574c6.084 0 8.938 4.38 8.938 10.494 0 6.116-2.854 10.495-8.938 10.495h-56.628c-8.787 0-15.396 7.477-15.396 17.29v19.104c0 .247.105.435.306.5z"/><path d="M393.714 74.65h60.465c.22 0 .45-.228.45-.454V36.974c0-.83-.752-.906-1.13-.604l-60.157 37.223c-.38.227-.53.453-.45.755.07.15.3.3.82.3z" fill="none"/><path d="M382.08 81.596h72.1c.22 0 .37.15.37.302v6.116c0 .302.23.453.452.453h12.996c.23 0 .45-.15.45-.453V82.05c0-.228.23-.454.45-.454h12.916c.3 0 .45-.227.45-.452v-6.04c0-.228-.15-.454-.45-.454h-12.916c-.22 0-.45-.227-.45-.453V30.632c0-3.555-1.322-5.82-3.543-6.57h-3.76c-1.172.3-2.446.84-3.812 1.66L379.677 73.67c-3.004 1.887-4.057 4-3.305 5.586.6 1.36 2.323 2.342 5.708 2.342zm11.263-8.003L453.5 36.37c.38-.302 1.13-.226 1.13.604v37.223c0 .227-.23.453-.45.453h-60.465c-.52 0-.752-.15-.822-.302-.08-.302.07-.53.45-.755zM50.372 0c5.858 1.092 11.616 2.652 17.346 4.278 3.278.952 6.547 1.937 9.795 2.986 5.102 1.625 10.182 3.465 14.803 6.21 2.07 1.256 4.058 2.676 5.757 4.408 1.84 1.8 3.348 3.933 4.454 6.255 2.015 4.208 2.705 8.91 2.91 13.53.095 3.017.09 6.06-.474 9.036-.468 2.587-1.3 5.138-2.684 7.385-1.223 1.985-2.922 3.7-4.984 4.807-1.978 1.066-4.243 1.574-6.486 1.53-3.402.035-6.703-1.05-9.756-2.47-.055-10.154-.008-20.31-.024-30.46-.022-1.838.103-3.694-.267-5.506-.26-1.405-.833-2.82-1.935-3.773-.73-.66-1.678-1.03-2.63-1.232-.963-.183-1.99.226-2.586 1-.99 1.237-1.25 2.88-1.296 4.422-.008 27.18.01 54.363-.008 81.542-7.312-2.318-14.625-4.637-21.935-6.96-.008-32.33-.005-64.66 0-96.99zM17.506 68.783C27.04 65.408 36.562 62 46.1 58.637c.014 3.743 0 7.487.005 11.233-.006.508.027 1.018-.037 1.523-7.538 2.672-15.06 5.39-22.592 8.08-1.044.394-2.115.84-2.92 1.638-.375.375-.68.927-.475 1.463.26.63.903.974 1.497 1.234 1.652.672 3.458.767 5.218.848 1.962-.03 3.932-.178 5.854-.602 1.298-.255 2.548-.693 3.786-1.158 3.218-1.165 6.436-2.337 9.66-3.49.023 3.166.003 6.334.01 9.503-.01.633.028 1.27-.035 1.9-3.957.712-7.962 1.195-11.985 1.258-8.1.183-16.22-1.07-23.916-3.603-2.525-.73-5.033-1.704-7.14-3.307C1.87 84.258.832 83.13.304 81.74c-.442-1.176-.41-2.535.14-3.67.532-1.132 1.46-2.027 2.482-2.722 2.365-1.633 4.973-2.878 7.616-3.99 2.277-.97 4.64-1.727 6.964-2.575zM94.21 64.52c2.16-.25 4.337-.31 6.51-.387 7.15.027 14.338.917 21.178 3.062 1.342.408 2.642.936 3.98 1.362 2.382.87 4.768 1.927 6.676 3.64 1.147 1.046 2.135 2.455 2.15 4.064.067 1.31-.526 2.566-1.375 3.532-1.617 1.812-3.753 3.057-5.898 4.143-2.283 1.164-4.737 1.915-7.13 2.8-14.613 5.248-29.226 10.493-43.836 15.746-.002-4.092.004-8.184-.002-12.275.022-.163-.068-.448.163-.49 11.118-3.957 22.233-7.924 33.35-11.89 1.502-.562 3.12-.97 4.397-1.99.522-.41 1.033-1.06.777-1.764-.266-.614-.904-.955-1.49-1.21-1.665-.658-3.477-.786-5.247-.835-2.77.02-5.567.36-8.202 1.25-7.918 2.774-15.823 5.583-23.744 8.35 0-4.396-.002-8.788.002-13.182 5.73-2.01 11.715-3.23 17.74-3.923zM126.692 94.796c1.73-.216 3.535.56 4.57 1.96 1.132 1.447 1.34 3.533.54 5.185-.806 1.715-2.65 2.916-4.56 2.853-1.756.04-3.458-.984-4.323-2.5-.783-1.334-.876-3.043-.27-4.463.68-1.64 2.28-2.836 4.042-3.034zm-.376.923c-.968.22-1.847.806-2.425 1.613-.694.95-.957 2.205-.693 3.354.222 1.067.897 2.02 1.808 2.61 1.403.923 3.37.872 4.712-.14 1.385-.98 2.043-2.858 1.567-4.485-.294-1.1-1.08-2.036-2.07-2.58-.88-.47-1.93-.604-2.898-.373zM125.118 96.896c.9-.005 1.805 0 2.707-.003.51.007 1.072.126 1.433.517.364.41.393 1.008.293 1.523-.055.34-.355.54-.572.78.19.166.43.323.475.595.104.52-.006 1.068.16 1.578.106.18.213.362.22.578-.373.01-.746.003-1.12.01-.252-.594-.064-1.26-.22-1.872-.063-.25-.32-.404-.567-.396-.61-.026-1.222-.008-1.83-.01-.01.76.022 1.52-.018 2.277-.318-.005-.637-.005-.955 0-.016-1.86-.005-3.718-.005-5.577zm.978.884v1.54c.545.004 1.09.008 1.638.003.27-.002.586-.053.762-.283.185-.293.18-.683.014-.98-.14-.236-.437-.26-.68-.274-.58-.017-1.157-.007-1.734-.006z"/></symbol><symbol viewBox="0 0 612 612" id="sprite-icon-twitter"><path d="M612 116.258c-22.525 9.98-46.694 16.75-72.088 19.772 25.93-15.527 45.777-40.155 55.184-69.41-24.322 14.378-51.17 24.82-79.775 30.48-22.906-24.438-55.49-39.66-91.63-39.66-69.333 0-125.55 56.218-125.55 125.514 0 9.828 1.11 19.427 3.25 28.606-104.325-5.24-196.834-55.223-258.75-131.174-10.822 18.51-16.98 40.078-16.98 63.1 0 43.56 22.182 81.994 55.836 104.48-20.575-.688-39.926-6.348-56.867-15.756v1.568c0 60.806 43.29 111.554 100.692 123.104-10.517 2.83-21.607 4.398-33.08 4.398-8.107 0-15.947-.803-23.634-2.333 15.985 49.907 62.336 86.2 117.253 87.194-42.946 33.655-97.098 53.656-155.915 53.656-10.134 0-20.116-.612-29.944-1.72 55.568 35.68 121.537 56.484 192.44 56.484 230.947 0 357.187-191.29 357.187-357.188l-.42-16.253C573.87 163.525 595.21 141.42 612 116.257z"/></symbol><symbol viewBox="0 0 55.244 15.1" id="sprite-icon-Valve-logo"><path d="M.002.05L53.11.09V15.1H0L.002.05zm1.53 1.612v11.904h50.046V1.662H1.53"/><path d="M16.668 3.192h2.382l2.508 8.846h-1.785l-.596-2.21H16.54s-.456 1.777-.553 2.167c-.53.042-1.827 0-1.827 0l2.508-8.803zm1.148 1.49l-.936 3.74h1.956l-1.02-3.74"/><path d="M44.05 3.192h3.658v1.15h-2.383v1.273h2.17v1.15h-2.17V8.08h2.383v1.15h-3.7l.042-6.038"/><path d="M33.42 3.192h1.788l1.7 6.592 1.658-6.592h1.786l-2.68 8.846h-1.574L33.42 3.192"/><path d="M25.896 3.192h1.702v7.356h3.696v1.49h-5.44c0-2.927-.075-5.995.042-8.846"/><path d="M4.634 3.192H6.38l1.7 6.676 1.657-6.676h1.83l-2.68 8.846H7.27L4.634 3.192"/><path d="M54.378 0c.48 0 .865.393.865.883 0 .498-.385.886-.87.886-.48 0-.874-.39-.874-.887 0-.49.392-.883.873-.883h.01zm-.01.14c-.387 0-.705.332-.705.743 0 .422.318.746.71.746.392.005.704-.325.704-.74 0-.418-.313-.75-.703-.75h-.01zm-.165 1.255h-.154V.412c.08-.01.157-.023.276-.023.147 0 .246.032.305.072.06.044.09.11.09.204 0 .13-.085.208-.19.24v.008c.086.016.145.096.166.237.022.154.045.214.06.244h-.163c-.02-.03-.044-.12-.063-.247-.02-.127-.086-.174-.21-.174h-.11v.422zm0-.543h.114c.128 0 .238-.048.238-.17 0-.085-.063-.17-.238-.17-.05 0-.086.002-.114.007V.85"/></symbol><symbol viewBox="0 0 512 512" id="sprite-icon-youtube"><path d="M490.24 113.92c-13.888-24.704-28.96-29.248-59.648-30.976C399.936 80.864 322.848 80 256.064 80c-66.912 0-144.032.864-174.656 2.912-30.624 1.76-45.728 6.272-59.744 31.008C7.36 138.592 0 181.088 0 255.904v.256c0 74.496 7.36 117.312 21.664 141.728 14.016 24.704 29.088 29.184 59.712 31.264C112.032 430.944 189.152 432 256.064 432c66.784 0 143.872-1.056 174.56-2.816 30.688-2.08 45.76-6.56 59.648-31.264C504.704 373.504 512 330.688 512 256.192v-.256c0-74.848-7.296-117.344-21.76-142.016zM192 352V160l160 96-160 96z"/></symbol><symbol viewBox="-1.28279994 -1.28279994 327.48759988 45.32559788" id="sprite-icon-zara-logo"><path d="M52.65 42.76H0v-1.582L39.436 2.57H6.776l-.94 9.625H3.43L4.51.975h49.26v1.132l-40.05 39.07 36.362.005.995-12.132h2.693l-1.12 13.71zm243.954-13.03h-21.816l-7.03 11.447h12.71v1.582h-24.893v-1.583h9.473L290.1.007h1.57l24.022 41.17h9.23v1.582h-32.726v-1.583h11.1l-6.692-11.446zm-20.857-1.582h19.93l-9.685-16.73h-.196l-10.05 16.73zm-161.07 1.578H92.866l-7.03 11.44h12.71v1.59H73.65v-1.59h9.48L108.175 0h1.572l24.02 41.167H143v1.588h-32.723v-1.588h11.098l-6.697-11.44zm-21.186-1.582h19.93l-9.684-16.73h-.19L93.49 28.145zm83.202 13.034V2.57h-10.807V.977h37.637l13.53.083c7.245.043 9.095 5.725 9.095 9.55 0 5.176-1.268 9.387-9.055 10.82-.14.03-1.165.076-2.613.13l11.415 19.618h9.23v1.582h-20.72L201.92 21.53l-13.045-.006v19.654h10.803v1.582h-33.793v-1.582h10.807zM188.876 2.57V19.93l12.132-.04c2.597-.01 4.618-.272 6.153-.512 2.073-.332 3.737-1.16 4.98-2.525 1.258-1.356 1.876-3.526 1.876-6.492 0-2.428-.634-4.205-1.892-5.33-1.258-1.117-2.8-1.808-4.582-2.073-1.803-.258-4.143-.384-7.04-.384h-11.626z" fill-rule="evenodd"/></symbol><symbol viewBox="0 0 6368 2527" id="logo"><path d="M3574 1352c0 48-9 90-26 128-18 37-43 69-74 95s-68 46-111 59c-42 13-88 20-137 20-35 0-66-3-96-9-29-6-55-13-78-21-23-9-42-18-58-27-15-9-27-16-32-23-7-6-11-14-14-24s-4-23-4-39c0-11 0-21 1-29 1-7 3-13 5-18s5-8 8-10 7-3 11-3c7 0 18 5 31 14 14 9 31 18 52 29 21 10 47 20 77 29 30 10 64 14 103 14 30 0 57-4 81-12 25-8 46-19 64-33 17-15 31-32 40-53 10-22 15-46 15-72 0-29-7-54-20-75-13-20-31-38-52-54-22-15-47-30-74-43-28-13-56-26-85-39-29-14-58-28-85-45-27-16-52-35-74-58-21-22-39-48-52-78-14-29-20-65-20-107 0-43 7-81 23-114s37-62 65-84c28-23 61-40 99-52s79-18 123-18c23 0 46 2 69 6s44 9 65 16c20 6 38 14 54 22s26 15 31 20 8 9 10 12 3 6 4 11c1 4 2 10 2 16 1 7 1 15 1 25 0 9 0 18-1 25-1 8-2 14-4 19-1 5-4 9-6 11-3 2-7 4-10 4-6 0-15-4-28-12-12-7-27-15-45-25-18-9-39-17-64-25-24-8-52-11-83-11-28 0-53 3-74 11s-39 18-52 30c-14 13-24 28-31 45-7 18-11 36-11 56 0 28 7 53 20 73 13 21 31 39 53 55s47 30 75 43c28 14 56 27 86 40 29 14 57 28 85 45 28 16 53 35 75 57 22 21 40 47 53 77 14 30 20 65 20 106z"/><path d="M4360 1232c0 21-5 35-16 44-10 9-22 13-35 13h-468c0 40 4 75 12 107s21 59 40 82c18 23 42 40 72 52 29 12 65 18 108 18 34 0 64-2 90-8 27-5 50-12 69-18 19-7 35-13 48-19 12-5 21-8 28-8 3 0 7 1 10 3 2 2 5 4 6 8 2 4 3 9 4 15 1 7 1 15 1 24 0 7 0 13-1 18 0 5-1 10-2 13 0 4-2 8-4 11s-4 6-7 9-11 8-25 14c-15 7-33 13-56 20-23 6-49 11-78 16-30 5-62 8-96 8-58 0-109-8-153-25-44-16-81-40-111-72-30-33-53-73-68-122-16-48-23-105-23-169 0-61 8-116 24-165 15-49 38-90 68-125 30-34 66-60 108-78s90-27 142-27c56 0 103 9 142 27 40 18 72 42 97 72 25 31 44 66 56 107s18 85 18 131v24zm-131-39c1-68-14-122-46-161-32-40-80-59-143-59-32 0-60 6-85 18-24 12-44 28-61 49-16 20-29 43-38 70-9 26-14 54-15 83h388z"/><path d="M4977 953c0 12-1 21-1 29-1 8-2 14-3 19-2 4-4 8-6 10s-6 4-10 4-9-2-15-4c-7-2-13-5-21-7s-16-5-26-7c-9-2-19-3-30-3-14 0-27 3-39 8-13 5-26 14-40 26-14 13-29 29-44 49s-32 45-51 74v469c0 4-1 7-3 10s-5 6-10 8-12 3-20 5c-9 1-19 1-33 1-13 0-23 0-31-1-9-2-16-3-21-5s-8-5-10-8-3-6-3-10V907c0-5 1-8 2-11 2-3 5-5 10-8 5-2 11-4 18-5 8-1 18-1 30-1 11 0 21 0 29 1 7 1 13 3 18 5 4 3 7 5 9 8s3 6 3 11v104c19-29 37-52 55-70 17-18 33-33 48-43 16-10 31-17 46-21s30-6 45-6c7 0 15 0 23 1 9 1 18 2 28 4 9 2 18 5 25 8 8 2 13 5 17 7 3 3 5 5 6 8 1 2 2 5 3 9s1 9 1 16c1 7 1 17 1 29z"/><path d="M5735 1620c0 4-1 7-3 10s-5 6-10 8c-4 2-11 3-18 5-8 1-18 1-29 1s-21 0-29-1c-8-2-14-3-18-5-5-2-8-5-9-8-2-3-3-6-3-10v-95c-41 45-81 78-120 98-40 21-80 31-121 31-47 0-87-8-119-24-33-16-59-37-79-64-20-28-35-59-44-95-8-37-13-81-13-132V907c0-5 1-8 3-11s6-5 11-8c5-2 12-4 20-5 9-1 19-1 32-1s23 0 32 1c8 1 15 3 20 5 5 3 8 5 11 8 2 3 3 6 3 11v415c0 41 3 75 9 100s15 47 27 64c13 18 29 32 48 41 19 10 41 15 66 15 33 0 66-12 98-35 33-23 67-57 104-102V907c0-5 0-8 2-11s6-5 11-8c5-2 12-4 20-5s19-1 32-1 23 0 32 1c8 1 15 3 20 5 4 3 8 5 10 8 3 3 4 6 4 11v713z"/><path d="M6368 614c0 10-1 18-2 24s-2 11-3 15c-2 3-3 6-6 7-2 1-4 2-7 2-4 0-9-1-14-4-6-2-13-5-21-8-8-2-17-5-28-7-11-3-23-4-38-4-19 0-36 3-50 9-13 7-25 17-33 30-8 14-14 31-18 53-4 21-6 47-6 78v78h159c4 0 8 1 11 3s5 5 8 9c2 5 4 10 5 17 2 7 2 16 2 26 0 19-2 33-7 41s-11 13-19 13h-159v624c0 4-1 7-3 10s-6 6-10 8c-6 2-12 3-21 5-8 1-19 1-31 1-13 0-24 0-32-1-8-2-15-3-20-5s-9-5-11-8-3-6-3-10V996h-101c-8 0-15-5-19-13s-6-22-6-41c0-10 0-19 1-26s3-12 5-17c2-4 5-7 8-9s7-3 11-3h101v-74c0-50 5-92 14-128s23-65 42-88 43-40 72-50c29-11 63-17 102-17 18 0 36 2 54 6 17 3 31 7 40 11 10 4 16 7 19 10s6 8 8 13 4 11 5 18c0 7 1 16 1 26z"/><g fill="none"><path d="M1083 690L364 1811h467l466 366 467-366h467L1512 690M1298 19L19 2013h639l639 501 640-501h639zm-215 671l215-666m6 19l208 647M658 2013l173-202m1106 202l-173-202M1298 356L364 1811h467l466 366 467-366h467L1298 356M831 1811l467-1451m0 0v1814m4-1801l462 1438"/></g></symbol></svg>